PathFileType	4	(X/Y/Z)	C:\Users\Basilio\Documents\Thesis Gigler\squatting_fais\c3dfiles\054\SLS_back_pre1\markers_experimental.trc
DataRate	CameraRate	NumFrames	NumMarkers	Units	OrigDataRate	OrigDataStartFrame	OrigNumFrames
200.000000	200.000000	4	61	mm	200.000000	217	1738
Frame#	Time	FHD			LBHD			RBHD			C7			T10			CLAV			LSHO			LUUPA			LMUPA			LDUPA			LLEP			LMEP			LRAD			LUL			LRFIN			RSHO			RUPA1			RMUPA			RDUPA			RLEP			RMEP			RRAD			RUL			RUFIN			LASI			RASI			USACR			LSACR			RSACR			LTHI1			LTHI2			LTHI3			LTHI4			LLFC			LMFC			LTIB1			LTIB2			LTIB3			LTIB4			LLMAL			LMMAL			LHEE			LMT1			LMT2			LMT5			RTHI			RTHI2			RTHI3			RTHI4			RLFC			RMFC			RTIB1			RTIB2			RTIB3			RTIB4			RLMAL			RMMAL			RHEE			RMT1			RMT2			RMT5			
		X1	Y1	Z1	X2	Y2	Z2	X3	Y3	Z3	X4	Y4	Z4	X5	Y5	Z5	X6	Y6	Z6	X7	Y7	Z7	X8	Y8	Z8	X9	Y9	Z9	X10	Y10	Z10	X11	Y11	Z11	X12	Y12	Z12	X13	Y13	Z13	X14	Y14	Z14	X15	Y15	Z15	X16	Y16	Z16	X17	Y17	Z17	X18	Y18	Z18	X19	Y19	Z19	X20	Y20	Z20	X21	Y21	Z21	X22	Y22	Z22	X23	Y23	Z23	X24	Y24	Z24	X25	Y25	Z25	X26	Y26	Z26	X27	Y27	Z27	X28	Y28	Z28	X29	Y29	Z29	X30	Y30	Z30	X31	Y31	Z31	X32	Y32	Z32	X33	Y33	Z33	X34	Y34	Z34	X35	Y35	Z35	X36	Y36	Z36	X37	Y37	Z37	X38	Y38	Z38	X39	Y39	Z39	X40	Y40	Z40	X41	Y41	Z41	X42	Y42	Z42	X43	Y43	Z43	X44	Y44	Z44	X45	Y45	Z45	X46	Y46	Z46	X47	Y47	Z47	X48	Y48	Z48	X49	Y49	Z49	X50	Y50	Z50	X51	Y51	Z51	X52	Y52	Z52	X53	Y53	Z53	X54	Y54	Z54	X55	Y55	Z55	X56	Y56	Z56	X57	Y57	Z57	X58	Y58	Z58	X59	Y59	Z59	X60	Y60	Z60	X61	Y61	Z61	

218	1.085	-200.5967407226563	1795.876342773438	-903.1276855468752	-359.5252990722657	1726.673706054688	-964.856872558594	-368.5800781250001	1723.9130859375	-824.7864379882815	-390.3683166503907	1557.277099609375	-883.198181152344	-397.127899169922	1225.380615234375	-888.2781982421877	-245.2202758789063	1505.9365234375	-896.6220703125002	-340.0567016601563	1539.24853515625	-1053.780151367188	-342.2137756347657	1314.433715820313	-1171.3056640625	-294.1246337890626	1307.017333984375	-1167.169921875	-314.2658386230469	1251.9794921875	-1179.237915039063	-285.0061950683594	1208.281616210938	-1182.425048828125	-323.5454711914063	1176.482421875	-1116.334106445313	-135.9719696044922	990.8322753906252	-1154.422485351563	-168.9554443359375	969.4356689453127	-1221.573486328125	-84.94972991943361	917.8424072265627	-1176.418701171875	-308.3775939941407	1540.651733398438	-727.9049072265626	-280.5440063476563	1313.626220703125	-612.4943847656251	-235.0158081054688	1302.65234375	-622.5283813476564	-257.4785156250001	1247.818359375	-608.7836303710939	-241.2431945800782	1210.064697265625	-613.1330566406251	-282.6291809082032	1186.384033203125	-676.5837402343751	-68.70467376708986	995.111755371094	-669.0401000976564	-112.5739364624024	979.6716308593752	-604.5986328125001	-18.0445728302002	935.8496093750002	-648.9873046875001	-205.8757781982422	1067.062622070313	-1026.725341796875	-192.7400054931641	1062.310791015625	-772.4398193359377	-391.0931091308595	1140.14697265625	-889.559509277344	-397.2210693359376	1108.62890625	-918.2256469726565	-392.576385498047	1106.2138671875	-862.1090087890627	-312.4654846191407	830.8380126953127	-1111.5224609375	-286.4381408691407	749.4209594726564	-1110.827392578125	-239.3086395263672	749.6519775390626	-1105.670532226563	-319.1537780761719	698.9142456054689	-1095.392700195313	-331.8135681152344	544.2032470703126	-1078.829833984375	-296.1561584472657	530.6000366210939	-944.7483520507815	-287.6301574707032	379.6053466796876	-1040.1201171875	-341.3855590820313	336.7368774414063	-1099.614379882813	-300.5375061035157	333.1618041992188	-1074.720947265625	-302.9991760253907	253.5383605957032	-1046.212158203125	-358.0599670410157	115.4218368530274	-1089.627197265625	-325.7663574218751	133.8130340576172	-999.3593750000002	-426.8565673828126	102.2941818237305	-1033.153442382813	-214.2392272949219	57.09293746948244	-1012.419921875	-206.7853088378907	54.76291656494142	-1061.697631835938	-258.6203308105469	38.39361953735352	-1113.307250976563	-306.3622741699219	760.7419433593751	-701.7068481445314	-276.8699340820313	701.4062500000001	-704.2769775390626	-244.1593017578126	698.5189208984376	-708.9031982421876	-315.0380249023438	629.3494262695314	-723.0514526367189	-339.0887756347657	537.3466186523439	-728.5354614257814	-284.5303344726563	533.3811645507814	-856.6434326171877	-288.1510925292969	428.2864379882814	-731.9884033203126	-361.2652282714844	358.3036193847657	-698.8005371093751	-315.4655151367188	349.6282958984376	-706.3093261718751	-301.4349670410157	298.0505981445313	-728.6779174804689	-360.6651611328126	122.5528640747071	-705.8314819335939	-317.8344421386719	135.3276519775391	-789.1433105468752	-419.6334228515626	99.90223693847659	-767.4090576171876	-200.3761749267579	54.47328948974611	-769.4539184570315	-201.2118072509766	54.09854888916017	-721.0512695312501	-253.8563995361329	38.40279006958009	-676.7196655273439	
219	1.09	-200.4619293212891	1795.797729492188	-903.3203735351565	-359.6159973144532	1726.703369140625	-965.030700683594	-368.6476135253907	1723.952880859375	-824.9956665039065	-390.5710449218751	1557.3193359375	-883.3528442382815	-397.1419982910157	1225.341430664063	-888.4459228515627	-245.2979888916016	1505.950927734375	-896.7287597656252	-340.1032104492188	1539.294677734375	-1053.8916015625	-341.1451416015626	1314.7099609375	-1171.638671875	-293.1392517089844	1307.576538085938	-1167.5654296875	-312.7805786132813	1252.452880859375	-1179.876953125	-283.3035278320313	1209.064208984375	-1183.318115234375	-321.5586242675782	1176.830078125	-1117.641479492188	-132.8998718261719	992.363464355469	-1155.600219726563	-165.3567504882813	971.0713500976565	-1222.901000976563	-81.14935302734376	920.1841430664065	-1177.751342773438	-308.4616699218751	1540.676635742188	-728.0987548828126	-279.5609436035157	1314.089111328125	-612.8153076171876	-233.8909149169922	1303.486450195313	-622.5386962890626	-256.2050476074219	1248.320190429688	-608.7431030273439	-239.3225097656251	1210.666137695313	-613.1357421875001	-280.5723266601563	1186.721069335938	-676.4270019531251	-64.94680786132814	996.9393310546877	-669.0350952148439	-108.7717819213867	981.4471435546877	-604.3815307617189	-14.12026405334473	938.3088989257815	-648.8734130859376	-205.8810119628907	1067.0283203125	-1026.83935546875	-192.8511352539063	1062.294311523438	-772.5045166015627	-391.338348388672	1140.151611328125	-889.6224365234377	-397.3268432617189	1108.61474609375	-918.394226074219	-392.513153076172	1106.234741210938	-862.2825927734377	-312.4499511718751	830.800476074219	-1111.528442382813	-286.4901123046876	749.4411010742189	-1110.884155273438	-239.2926635742188	749.6516723632814	-1105.75	-319.1576538085938	698.9040527343751	-1095.393920898438	-331.7591857910157	544.1831665039064	-1078.869873046875	-296.0156250000001	530.6303710937501	-944.7803955078127	-287.5936889648438	379.5987854003907	-1040.173706054688	-341.4017639160157	336.7417907714844	-1099.62744140625	-300.4580078125001	333.1121826171876	-1074.790405273438	-302.8383483886719	253.4977264404297	-1046.209838867188	-357.9723815917969	115.3939514160157	-1089.627563476563	-325.7105712890626	133.7811737060547	-999.3545532226565	-426.8609619140626	102.319206237793	-1033.15380859375	-214.1958312988282	57.07869338989259	-1012.445861816406	-206.7774963378907	54.75951004028322	-1061.700317382813	-258.7201232910157	38.37203216552735	-1113.246337890625	-306.3945617675782	760.7294311523439	-701.8357543945314	-276.8650817871094	701.4077148437501	-704.3479614257814	-244.135971069336	698.5110473632814	-708.9434204101564	-315.1866455078126	629.3303833007814	-722.8532104492189	-339.0007934570313	537.3182983398439	-728.5822753906251	-284.3231201171876	533.3754272460939	-856.7404785156252	-288.1185607910157	428.2556152343751	-732.0272827148439	-361.2464904785157	358.3333129882813	-698.8214111328126	-315.4321899414063	349.5960388183594	-706.3112182617189	-301.3929138183594	298.0586853027344	-728.6837158203126	-360.6520996093751	122.5560531616211	-705.8297729492189	-317.7913513183594	135.3807220458985	-789.2010498046877	-419.6084289550782	99.91133117675784	-767.3930053710939	-200.5123901367188	54.50562286376955	-769.4760742187502	-201.2871398925782	53.86140823364259	-721.3472900390626	-253.8888702392579	38.55827331542969	-676.5386352539064	
220	1.095	-200.4450988769532	1795.778930664063	-903.5025634765627	-359.7153320312501	1726.687133789063	-965.2552490234377	-368.7017517089844	1724.024658203125	-825.1339111328127	-390.6770019531251	1557.341186523438	-883.4682617187502	-397.1611328125001	1225.297607421875	-888.6651000976565	-245.3731994628907	1505.995361328125	-896.9026489257815	-340.1729431152344	1539.34765625	-1054.034423828125	-339.6885681152344	1315.062133789063	-1172.1181640625	-292.1063232421876	1308.204223632813	-1168.15283203125	-311.0060424804688	1252.874145507813	-1180.5439453125	-281.1773071289063	1209.902587890625	-1184.166015625	-319.5446777343751	1177.37744140625	-1118.752197265625	-130.0145416259766	993.7864379882815	-1156.754516601563	-161.6537475585938	972.9887695312502	-1224.318725585938	-77.1242141723633	922.2712402343752	-1179.302490234375	-308.4933776855469	1540.712280273438	-728.2989501953126	-278.8733825683594	1314.363525390625	-613.0220336914064	-232.9315032958985	1304.085327148438	-622.5195922851564	-254.5291900634766	1248.764892578125	-608.8068237304689	-237.7648620605469	1211.3818359375	-612.6649169921876	-278.3152160644532	1186.9931640625	-676.2064208984376	-61.3633499145508	999.3657836914065	-669.0982666015626	-104.6820068359375	983.2259521484377	-604.3862915039064	-9.728650093078615	941.0396118164065	-649.0063476562501	-205.8975219726563	1067.03564453125	-1026.954956054688	-192.9423522949219	1062.291137695313	-772.557067871094	-391.330291748047	1140.172729492188	-889.831970214844	-397.3327941894532	1108.607666015625	-918.4735107421877	-392.6084594726564	1106.220092773438	-862.333435058594	-312.5185852050782	830.8115234375002	-1111.547729492188	-286.4706115722657	749.4307250976564	-1110.906372070313	-239.2322998046876	749.6759643554689	-1105.830200195313	-319.1443481445313	698.8684692382814	-1095.447509765625	-331.6669311523438	544.1798095703126	-1078.93701171875	-295.9609375000001	530.6311645507814	-944.8367919921877	-287.5924072265626	379.5733337402344	-1040.169311523438	-341.4196166992188	336.7778320312501	-1099.62451171875	-300.2056884765626	333.1740722656251	-1074.881469726563	-302.8294372558594	253.4793090820313	-1046.22265625	-358.0282897949219	115.4095993041992	-1089.6220703125	-325.7165222167969	133.7965087890625	-999.3587646484377	-426.8568725585939	102.3005142211914	-1033.117919921875	-214.2164916992188	57.15829467773439	-1012.474975585938	-206.7698211669922	54.74435043334962	-1061.709350585938	-258.6490783691407	38.38704299926759	-1113.310302734375	-306.4061584472657	760.7333374023439	-701.8978881835939	-276.9086914062501	701.4099121093751	-704.4046020507814	-244.1215972900391	698.5557250976564	-708.9332275390626	-314.9579467773438	629.3400878906251	-723.1997680664064	-338.9634704589844	537.3084716796876	-728.6503906250001	-284.3249206542969	533.3333740234376	-856.7390747070315	-288.0655517578126	428.254608154297	-732.0394287109376	-361.2224121093751	358.3325805664063	-698.8650512695314	-315.4720764160157	349.5892028808594	-706.3798217773439	-301.3368835449219	298.0523376464844	-728.7347412109376	-360.6328735351563	122.557601928711	-705.8668823242189	-317.7858886718751	135.324462890625	-789.2012939453127	-419.6101379394532	99.88550567626956	-767.4270019531251	-200.5116882324219	54.50951766967775	-769.4727172851565	-201.1773834228516	54.07640075683595	-721.1303100585939	-253.8710021972657	38.36652755737305	-676.7169799804689	
221	1.1	-200.5039825439454	1795.64453125	-903.6994628906252	-359.9237060546876	1726.737182617188	-965.4866333007815	-368.7823791503907	1724.114868164063	-825.290710449219	-390.8323059082032	1557.308959960938	-883.6162719726565	-397.2786560058595	1225.246337890625	-888.8166503906252	-245.4856567382813	1506.006958007813	-897.082702636719	-340.1863708496094	1539.371704101563	-1054.16015625	-338.4518737792969	1315.488647460938	-1172.560302734375	-290.6699218750001	1308.87060546875	-1168.637451171875	-309.5666503906251	1253.606201171875	-1181.230346679688	-279.0353393554688	1210.847534179688	-1184.955688476563	-317.5851440429688	1177.567993164063	-1119.765502929688	-126.4150772094727	995.4274902343752	-1158.031005859375	-158.0538330078125	974.7852783203127	-1225.80810546875	-73.66625976562501	924.706970214844	-1180.702392578125	-308.6112060546876	1540.73681640625	-728.4859008789064	-278.0635375976563	1314.667114257813	-613.1724243164064	-231.7631378173829	1304.804809570313	-622.4627685546876	-253.0789794921876	1249.46337890625	-608.7103881835939	-235.6026153564454	1212.146484375	-612.5367431640626	-276.1884155273438	1187.250732421875	-675.9946289062501	-57.48234176635744	1001.556274414063	-668.9844360351564	-100.7279586791992	985.237243652344	-604.0997924804689	-5.349202156066895	943.9055786132815	-648.8991699218751	-205.8869018554688	1067.020141601563	-1027.097045898438	-193.0545043945313	1062.340087890625	-772.6738281250002	-391.4024047851564	1140.174682617188	-890.0001220703127	-397.3977966308595	1108.62109375	-918.6154785156252	-392.9031982421876	1106.221313476563	-862.3415527343752	-312.4748535156251	830.8013916015627	-1111.5654296875	-286.4587707519532	749.4403686523439	-1110.986328125	-239.2320709228516	749.6961669921876	-1105.9423828125	-319.1220703125001	698.9230957031251	-1095.490966796875	-331.6232299804688	544.2023315429689	-1078.962158203125	-295.8554687500001	530.5961914062501	-944.886169433594	-287.5847778320313	379.5400695800782	-1040.199829101563	-341.3735351562501	336.7725830078126	-1099.676513671875	-300.2398376464844	333.1152038574219	-1074.891479492188	-302.7641906738282	253.503402709961	-1046.278442382813	-358.0212097167969	115.4163208007813	-1089.62451171875	-325.7315368652344	133.7742309570313	-999.330993652344	-426.7883911132814	102.2921218872071	-1033.11279296875	-214.198226928711	57.14185714721681	-1012.450744628906	-206.7735137939454	54.75883865356447	-1061.70703125	-258.7724609375001	38.39270401000977	-1113.265625	-306.4902038574219	760.7584838867189	-702.0224609375001	-276.9120788574219	701.4489135742189	-704.4573364257814	-244.1379547119141	698.5510253906251	-708.9741821289064	-314.8944702148438	629.3112792968751	-723.2811279296876	-338.9212951660157	537.3315429687501	-728.7025146484376	-284.2316894531251	533.2889404296876	-856.800231933594	-288.0654907226563	428.2591247558595	-732.0568237304689	-361.1984558105469	358.3358459472657	-698.9323730468751	-315.4225769042969	349.6205749511719	-706.3665771484376	-301.2927551269532	298.0851745605469	-728.7650756835939	-360.6492614746094	122.5563354492188	-705.8565673828126	-317.7567443847657	135.3381958007813	-789.2360839843752	-419.6358642578126	99.90563964843753	-767.4276733398439	-200.5103149414063	54.50671768188478	-769.473571777344	-201.2507629394532	54.08974838256837	-721.0844116210939	-253.8573760986329	38.39741516113282	-676.6832885742189	
